<svg width="475" height="18" viewBox="0 0 475 18" fill="none" xmlns="http://www.w3.org/2000/svg">
<g transform="scale(2,2)">
    <path d="M458.958 0.916016H16.0418C12.0014 0.920515 8.12782 2.52747 5.27077 5.38434C2.41372 8.2412 0.806522 12.1147 0.801758 16.155V17.755C0.806522 13.7147 2.41372 9.84121 5.27077 6.98434C8.12782 4.12748 12.0014 2.52052 16.0418 2.51602H458.958C462.998 2.52052 466.872 4.12748 469.729 6.98434C472.586 9.84121 474.193 13.7147 474.198 17.755V16.155C474.193 12.1147 472.586 8.2412 469.729 5.38434C466.872 2.52747 462.998 0.920515 458.958 0.916016Z" fill="url(#paint0_linear_185_333)"/>
</g>
<defs>
<linearGradient id="paint0_linear_185_333" x1="0.801758" y1="9.33553" x2="474.198" y2="9.33553" gradientUnits="userSpaceOnUse">
<stop stop-color="#FBD407"/>
<stop offset="0.78" stop-color="#FB2032"/>
<stop offset="1" stop-color="#FB2032"/>
</linearGradient>
</defs>
</svg>
